<svg width="1440" height="353" viewBox="0 0 1440 353" fill="none" xmlns="http://www.w3.org/2000/svg">
<g opacity="0.05">
<path d="M-17.4253 347V6.12253H41.0108L205.119 252.528V6.12253H263.555V347H205.119L41.0108 101.081V347H-17.4253Z" fill="black"/>
<path d="M307.378 347V6.12253H527.488V53.3584H365.815V151.239H512.879V197.501H365.815V299.764H527.488V347H307.378Z" fill="black"/>
<path d="M546.647 347L652.806 174.613L545.673 6.12253H612.875L690.302 128.351L761.887 6.12253H828.114L721.955 177.048L830.062 347H762.861L684.459 223.31L612.875 347H546.647Z" fill="black"/>
<path d="M967.752 352.844C943.079 352.844 921.166 348.461 902.012 339.695C882.858 330.93 867.924 318.431 857.211 302.199C846.497 285.967 840.978 266.65 840.654 244.25H902.499C902.499 255.612 905.096 265.839 910.29 274.929C915.809 283.694 923.276 290.674 932.691 295.868C942.43 301.063 954.117 303.66 967.752 303.66C979.44 303.66 989.504 301.874 997.944 298.303C1006.71 294.407 1013.37 289.051 1017.91 282.233C1022.78 275.091 1025.21 266.813 1025.21 257.398C1025.21 246.685 1022.62 237.919 1017.42 231.102C1012.55 223.959 1005.74 217.954 996.97 213.084C988.205 208.214 978.141 203.994 966.778 200.423C955.416 196.527 943.404 192.469 930.743 188.248C903.797 179.158 883.507 167.634 869.872 153.674C856.237 139.389 849.419 120.398 849.419 96.6986C849.419 76.8952 854.127 59.8513 863.541 45.5669C872.956 31.2825 886.104 20.2446 902.986 12.4531C920.192 4.33699 939.995 0.278931 962.396 0.278931C985.121 0.278931 1004.92 4.33699 1021.81 12.4531C1039.01 20.5692 1052.48 31.9318 1062.22 46.5409C1072.29 60.8253 1077.48 78.0314 1077.81 98.1594H1015.48C1015.15 89.7187 1012.88 81.9272 1008.66 74.785C1004.44 67.3182 998.269 61.3122 990.153 56.7672C982.361 51.8975 972.784 49.4627 961.422 49.4627C951.682 49.138 942.917 50.7612 935.126 54.3324C927.659 57.5788 921.653 62.4485 917.108 68.9414C912.887 75.1096 910.777 82.9011 910.777 92.3158C910.777 101.406 912.725 109.035 916.621 115.203C920.841 121.047 926.847 126.079 934.639 130.299C942.43 134.195 951.52 137.928 961.909 141.5C972.297 145.071 983.66 148.966 995.997 153.187C1012.88 158.706 1028.14 165.523 1041.77 173.639C1055.73 181.431 1066.77 191.657 1074.89 204.318C1083 216.98 1087.06 233.374 1087.06 253.502C1087.06 271.033 1082.51 287.428 1073.42 302.686C1064.33 317.62 1051.02 329.794 1033.49 339.208C1015.96 348.299 994.049 352.844 967.752 352.844Z" fill="black"/>
<path d="M1198.05 347V53.3584H1097.73V6.12253H1356.31V53.3584H1256V347H1198.05Z" fill="black"/>
<path d="M1524.16 352.844C1491.37 352.844 1462.31 345.539 1436.99 330.93C1411.99 315.996 1392.35 295.381 1378.07 269.085C1363.78 242.464 1356.64 211.623 1356.64 176.561C1356.64 141.824 1363.78 111.308 1378.07 85.0113C1392.35 58.3904 1411.99 37.6131 1436.99 22.6795C1462.31 7.74577 1491.37 0.278931 1524.16 0.278931C1557.6 0.278931 1586.98 7.74577 1612.3 22.6795C1637.62 37.6131 1657.26 58.3904 1671.22 85.0113C1685.18 111.308 1692.16 141.824 1692.16 176.561C1692.16 211.623 1685.18 242.464 1671.22 269.085C1657.26 295.381 1637.62 315.996 1612.3 330.93C1586.98 345.539 1557.6 352.844 1524.16 352.844ZM1524.65 300.251C1546.4 300.251 1565.39 295.381 1581.62 285.642C1597.85 275.578 1610.35 261.294 1619.12 242.789C1627.88 224.284 1632.27 202.208 1632.27 176.561C1632.27 150.914 1627.88 128.838 1619.12 110.334C1610.35 91.8289 1597.85 77.7068 1581.62 67.9675C1565.39 57.9034 1546.4 52.8714 1524.65 52.8714C1502.89 52.8714 1483.9 57.9034 1467.67 67.9675C1451.44 77.7068 1438.78 91.8289 1429.69 110.334C1420.92 128.838 1416.54 150.914 1416.54 176.561C1416.54 202.208 1420.92 224.284 1429.69 242.789C1438.78 261.294 1451.44 275.578 1467.67 285.642C1483.9 295.381 1502.89 300.251 1524.65 300.251Z" fill="black"/>
<path d="M1743.08 347V6.12253H1865.31C1892.25 6.12253 1914.49 10.8299 1932.02 20.2446C1949.88 29.3347 1963.02 41.6712 1971.47 57.2542C1980.23 72.5125 1984.61 89.881 1984.61 109.36C1984.61 127.54 1980.39 144.421 1971.95 160.004C1963.51 175.587 1950.36 188.086 1932.51 197.501C1914.65 206.916 1891.76 211.623 1863.85 211.623H1801.51V347H1743.08ZM1920.82 347L1849.24 196.527H1912.54L1987.54 347H1920.82ZM1801.51 168.283H1861.41C1883.16 168.283 1899.07 163.088 1909.13 152.7C1919.52 141.987 1924.72 128.027 1924.72 110.821C1924.72 93.9391 1919.68 80.4663 1909.62 70.4023C1899.56 60.0136 1883.49 54.8193 1861.41 54.8193H1801.51V168.283Z" fill="black"/>
<path d="M2017.47 347V6.12253H2237.58V53.3584H2075.91V151.239H2222.97V197.501H2075.91V299.764H2237.58V347H2017.47Z" fill="black"/>
</g>
</svg>
