<svg width="32" height="31" viewBox="0 0 32 31" fill="none" xmlns="http://www.w3.org/2000/svg">
<g id="Frame">
<path id="Vector" d="M15.8129 9.10835C12.2664 9.10835 9.40586 11.9689 9.40586 15.5154C9.40586 19.0618 12.2664 21.9224 15.8129 21.9224C19.3593 21.9224 22.2199 19.0618 22.2199 15.5154C22.2199 11.9689 19.3593 9.10835 15.8129 9.10835ZM15.8129 19.6808C13.5211 19.6808 11.6475 17.8128 11.6475 15.5154C11.6475 13.218 13.5155 11.35 15.8129 11.35C18.1103 11.35 19.9783 13.218 19.9783 15.5154C19.9783 17.8128 18.1047 19.6808 15.8129 19.6808ZM23.9764 8.84627C23.9764 9.67712 23.3073 10.3407 22.482 10.3407C21.6511 10.3407 20.9876 9.67155 20.9876 8.84627C20.9876 8.021 21.6567 7.35186 22.482 7.35186C23.3073 7.35186 23.9764 8.021 23.9764 8.84627ZM28.2199 10.363C28.1251 8.36115 27.6678 6.58792 26.2013 5.12697C24.7403 3.66601 22.9671 3.20876 20.9653 3.10839C18.9021 2.99129 12.7181 2.99129 10.6549 3.10839C8.65865 3.20319 6.88543 3.66043 5.4189 5.12139C3.95237 6.58235 3.5007 8.35557 3.40032 10.3574C3.28323 12.4206 3.28323 18.6046 3.40032 20.6678C3.49512 22.6696 3.95237 24.4428 5.4189 25.9038C6.88543 27.3647 8.65308 27.822 10.6549 27.9224C12.7181 28.0395 18.9021 28.0395 20.9653 27.9224C22.9671 27.8276 24.7403 27.3703 26.2013 25.9038C27.6622 24.4428 28.1195 22.6696 28.2199 20.6678C28.337 18.6046 28.337 12.4262 28.2199 10.363ZM25.5545 22.8815C25.1195 23.9744 24.2775 24.8164 23.179 25.2569C21.534 25.9094 17.6307 25.7588 15.8129 25.7588C13.995 25.7588 10.0862 25.9038 8.44676 25.2569C7.35383 24.822 6.51183 23.98 6.07131 22.8815C5.4189 21.2365 5.56946 17.3332 5.56946 15.5154C5.56946 13.6975 5.42447 9.78865 6.07131 8.14925C6.50625 7.05632 7.34825 6.21432 8.44676 5.7738C10.0917 5.12139 13.995 5.27195 15.8129 5.27195C17.6307 5.27195 21.5396 5.12697 23.179 5.7738C24.2719 6.20874 25.1139 7.05075 25.5545 8.14925C26.2069 9.79422 26.0563 13.6975 26.0563 15.5154C26.0563 17.3332 26.2069 21.2421 25.5545 22.8815Z" fill="white"/>
</g>
</svg>
